<?xml version="1.0" encoding="UTF-8" standalone="no"?>
<svg width="896px" height="455px" viewBox="0 0 896 455" version="1.1" xmlns="http://www.w3.org/2000/svg" xmlns:xlink="http://www.w3.org/1999/xlink" xmlns:sketch="http://www.bohemiancoding.com/sketch/ns">
    <!-- Generator: Sketch 3.3 (11970) - http://www.bohemiancoding.com/sketch -->
    <title>lab_final</title>
    <desc>Created with Sketch.</desc>
    <defs></defs>
    <g id="Page-1" stroke="none" stroke-width="1" fill="none" fill-rule="evenodd" sketch:type="MSPage">
        <g id="lab_final" sketch:type="MSLayerGroup">
            <rect id="Rectangle-40" fill-opacity="0.129444067" fill="#000000" sketch:type="MSShapeGroup" x="0" y="0" width="896" height="455"></rect>
            <g id="shadows" transform="translate(107.000000, 88.000000)" fill-opacity="0.15" fill="#000000" sketch:type="MSShapeGroup">
                <path d="M789,98.907109 L789,367 L561.133535,367 L504.33374,271.998535 L675.238622,232.660157 L640.825765,123.570313 L679.6586,41.3117189 L789,268.907109 L789,98.907109 Z" id="B_shadow"></path>
                <path d="M272.179687,239.258514 L387.481969,241.388519 L400.371098,272.011017 L458.302281,272.011017 L335.347656,0.40234375 L553.530904,367.000946 L267.917481,367.000946 L212.047444,272.011017 L265.458417,272.011017 L272.179687,239.258514 Z" id="A_shadow"></path>
                <path d="M177.519531,272 L177.519531,223.290039 L55.5595703,223.290039 L55.5595703,2.95700863 L260.302673,367.000008 L57.654967,367 L0.120117188,272 L177.519531,272 Z" id="L_Shadow"></path>
            </g>
            <path d="M107.120117,360 L284.519531,360 L284.519531,311.290039 L162.55957,311.290039 L162.55957,90.7199707 L107.116,90.72 L107.120117,360 Z" id="L_letter" fill="#FFFFFF" sketch:type="MSShapeGroup"></path>
            <path d="M319.01997,360 L372.47997,360 L385.15197,329.508 L494.44797,329.508 L507.11997,360 L565.33197,360 C565.33197,360 485.00338,182.806829 444.839085,94.2102439 C443.952619,92.2548293 442.179688,88.344 442.179688,88.344 L437.42397,88.344 L319.01997,360 Z M403.76397,283.176 L423.16797,236.448 C431.08797,217.44 439.00797,188.136 439.00797,188.136 C439.00797,188.136 447.32397,217.44 455.24397,236.448 L474.64797,283.176 L403.76397,283.176 Z" id="A_letter" fill="#FFFFFF" sketch:type="MSShapeGroup"></path>
            <path d="M403.76397,283.176 L423.16797,236.448 C431.08797,217.44 439.00797,188.136 439.00797,188.136 C439.00797,188.136 447.32397,217.44 455.24397,236.448 L474.64797,283.176 L403.76397,283.176 Z" id="Path" fill-opacity="0.15" fill="#000000" sketch:type="MSShapeGroup"></path>
            <path d="M611.31194,360 L720.21194,360 C776.44394,360 810.49994,324.756 810.49994,276.84 C810.49994,243.18 792.67994,218.628 755.85194,209.916 C779.21594,202.392 793.86794,185.364 793.86794,160.416 C793.86794,122.4 765.75194,90.72 715.45994,90.72 L611.31194,90.72 L611.31194,360 Z M666.75194,190.116 L666.75194,139.428 L712.29194,139.428 C729.31994,139.428 739.21994,149.328 739.21994,164.772 C739.21994,180.216 727.33994,190.116 709.51994,190.116 L666.75194,190.116 Z M666.75194,311.292 L666.75194,237.24 L714.66794,237.24 C740.01194,237.24 754.66394,252.288 754.66394,274.068 C754.66394,296.244 740.40794,311.292 717.83594,311.292 L666.75194,311.292 Z" id="B_letter" fill="#FFFFFF" sketch:type="MSShapeGroup"></path>
            <path d="M666.75194,190.116 L666.75194,139.428 L712.29194,139.428 C729.31994,139.428 739.21994,149.328 739.21994,164.772 C739.21994,180.216 727.33994,190.116 709.51994,190.116 L666.75194,190.116 Z" id="Path" fill-opacity="0.15" fill="#000000" sketch:type="MSShapeGroup"></path>
            <path d="M666.75194,311.292 L666.75194,237.24 L714.66794,237.24 C740.01194,237.24 754.66394,252.288 754.66394,274.068 C754.66394,296.244 740.40794,311.292 717.83594,311.292 L666.75194,311.292 Z" id="Path" fill-opacity="0.15" fill="#000000" sketch:type="MSShapeGroup"></path>
        </g>
    </g>
</svg>