<?xml version="1.0" encoding="UTF-8" standalone="no"?>
<svg width="1093px" height="531px" viewBox="0 0 1093 531" version="1.1" xmlns="http://www.w3.org/2000/svg" xmlns:xlink="http://www.w3.org/1999/xlink" xmlns:sketch="http://www.bohemiancoding.com/sketch/ns">
    <!-- Generator: Sketch 3.3 (11970) - http://www.bohemiancoding.com/sketch -->
    <title>logo_small_simple</title>
    <desc>Created with Sketch.</desc>
    <defs></defs>
    <g id="Page-1" stroke="none" stroke-width="1" fill="none" fill-rule="evenodd" sketch:type="MSPage">
        <g id="logo_small_simple" sketch:type="MSLayerGroup">
            <rect id="Path-Copy-2" fill="#FFFFFF" sketch:type="MSShapeGroup" x="0" y="0" width="1093" height="531"></rect>
            <path d="M502.76397,321.176 L522.16797,274.448 C530.08797,255.44 538.00797,226.136 538.00797,226.136 C538.00797,226.136 546.32397,255.44 554.24397,274.448 L573.64797,321.176 L502.76397,321.176 Z" id="Path" fill="#D8D8D8" sketch:type="MSShapeGroup"></path>
            <path d="M765.75194,228.116 L765.75194,177.428 L811.29194,177.428 C828.31994,177.428 838.21994,187.328 838.21994,202.772 C838.21994,218.216 826.33994,228.116 808.51994,228.116 L765.75194,228.116 Z" id="Path" fill="#D8D8D8" sketch:type="MSShapeGroup"></path>
            <path d="M765.75194,349.292 L765.75194,275.24 L813.66794,275.24 C839.01194,275.24 853.66394,290.288 853.66394,312.068 C853.66394,334.244 839.40794,349.292 816.83594,349.292 L765.75194,349.292 Z" id="Path" fill="#D8D8D8" sketch:type="MSShapeGroup"></path>
            <path d="M0,0 L1093,0 L1093,531 L0,531 L0,0 Z M206.116,398 L383.524,398 L383.524,349.292 L261.556,349.292 L261.556,128.72 L206.116,128.72 L206.116,398 Z M418.01997,398 L471.47997,398 L484.15197,367.508 L593.44797,367.508 L606.11997,398 L664.33197,398 L541.17597,126.344 L536.42397,126.344 L418.01997,398 Z M710.31194,398 L819.21194,398 C875.44394,398 909.49994,362.756 909.49994,314.84 C909.49994,281.18 891.67994,256.628 854.85194,247.916 C878.21594,240.392 892.86794,223.364 892.86794,198.416 C892.86794,160.4 864.75194,128.72 814.45994,128.72 L710.31194,128.72 L710.31194,398 Z" id="Rectangle-40" fill="#D8D8D8" sketch:type="MSShapeGroup"></path>
        </g>
    </g>
</svg>